<svg width="21" height="17" viewBox="0 0 21 17" fill="none" xmlns="http://www.w3.org/2000/svg">
<path d="M6.61362 7.13636C8.08219 7.13636 9.27271 5.76269 9.27271 4.06818C9.27271 2.37367 8.08219 1 6.61362 1C5.14504 1 3.95453 2.37367 3.95453 4.06818C3.95453 5.76269 5.14504 7.13636 6.61362 7.13636Z" stroke="#A28AEB" stroke-width="2"/>
<path d="M12.2273 16C12.2273 15.1043 12.082 14.2173 11.7997 13.3898C11.5175 12.5623 11.1038 11.8104 10.5823 11.1772C10.0608 10.5441 9.44174 10.0419 8.76046 9.69954C8.07918 9.35716 7.34905 9.18124 6.61179 9.18183C5.12345 9.18183 3.69607 9.90017 2.64366 11.1788C1.59124 12.4575 1 14.1917 1 16H12.2273Z" stroke="#A28AEB" stroke-width="2"/>
<path d="M14.5909 8.50001C15.8963 8.50001 16.9545 7.4316 16.9545 6.11364C16.9545 4.79569 15.8963 3.72728 14.5909 3.72728C13.2855 3.72728 12.2272 4.79569 12.2272 6.11364C12.2272 7.4316 13.2855 8.50001 14.5909 8.50001Z" stroke="#A28AEB" stroke-width="2"/>
<path d="M14.2682 16H19.3182C19.3182 15.2826 19.2036 14.5722 18.9811 13.9096C18.7585 13.2469 18.4323 12.645 18.0212 12.1383C17.6101 11.6317 17.1221 11.2302 16.5852 10.9568C16.0483 10.6835 15.473 10.5437 14.8923 10.5455C14.169 10.5443 13.4567 10.7632 12.8182 11.1827" stroke="#A28AEB" stroke-width="2"/>
</svg>
