<svg width="21" height="20" viewBox="0 0 21 20" fill="none" xmlns="http://www.w3.org/2000/svg">
<path fill-rule="evenodd" clip-rule="evenodd" d="M9.325 19C8.84061 19 8.42738 18.6589 8.3485 18.1939C8.27585 17.8177 7.99747 17.5102 7.62301 17.3929C7.31789 17.2909 7.01955 17.1707 6.72973 17.0329C6.38485 16.8612 5.97113 16.8869 5.65144 17.0997C5.26457 17.3704 4.73311 17.3284 4.39608 17.0007L3.08523 15.7253C2.73244 15.382 2.6866 14.8408 2.97687 14.446C3.20073 14.1278 3.23297 13.7175 3.06144 13.3699C2.94842 13.1284 2.84873 12.8812 2.7628 12.6293C2.63972 12.2324 2.30001 11.9351 1.8814 11.8579C1.3766 11.7794 1.00393 11.3576 1.00001 10.8601V9.26457C0.997329 8.69127 1.42292 8.2009 2.0043 8.10743C2.44534 8.02579 2.81362 7.73187 2.98216 7.327C3.03237 7.213 3.08523 7.09985 3.14073 6.98757C3.36487 6.56771 3.33391 6.062 3.06011 5.671C2.71772 5.20799 2.77029 4.57183 3.18433 4.168L4.14766 3.23071C4.62277 2.76827 5.3721 2.70842 5.91837 3.08929L5.94876 3.10986C6.35666 3.37698 6.87572 3.42536 7.32833 3.23843C7.81254 3.06886 8.16946 2.66402 8.26786 2.17257L8.28114 2.12886C8.38984 1.47825 8.96733 1.00027 9.64485 1H10.8077C11.5034 0.999692 12.0972 1.4893 12.211 2.15714L12.2321 2.24714C12.3255 2.71793 12.6639 3.10757 13.1254 3.27571C13.5702 3.46146 14.0817 3.41295 14.4813 3.14714L14.5473 3.10086C15.1077 2.70787 15.8783 2.76831 16.3669 3.24357L17.2536 4.10757C17.698 4.54235 17.7538 5.22605 17.3857 5.72371C17.0973 6.13967 17.0606 6.67418 17.2892 7.12386L17.3461 7.25243C17.5313 7.6915 17.932 8.00971 18.4111 8.09843C19.0374 8.19781 19.498 8.72316 19.5 9.34043V10.7714C19.4999 11.3158 19.0952 11.7802 18.5433 11.8694C18.0894 11.9542 17.7197 12.2739 17.5799 12.7026C17.5183 12.874 17.4495 13.0455 17.3738 13.2169C17.1975 13.5936 17.2366 14.0325 17.4769 14.374C17.7939 14.8032 17.7447 15.3927 17.3606 15.7664L16.1304 16.9647C15.7786 17.307 15.2237 17.3511 14.8196 17.0689C14.4821 16.8445 14.045 16.8198 13.6831 17.0046C13.4252 17.1289 13.1605 17.2392 12.8903 17.335C12.5123 17.4619 12.2336 17.7766 12.1609 18.1591C12.0837 18.6404 11.6597 18.9964 11.1591 19H9.325Z" stroke="#A28AEB" stroke-width="2" stroke-linecap="round" stroke-linejoin="round"/>
<path fill-rule="evenodd" clip-rule="evenodd" d="M12.7 10C12.7 11.4912 11.4912 12.7 9.99997 12.7C8.50877 12.7 7.29999 11.4912 7.29999 10C7.29999 8.50882 8.50877 7.3 9.99997 7.3C11.4912 7.3 12.7 8.50882 12.7 10Z" stroke="#A28AEB" stroke-width="2" stroke-linecap="round" stroke-linejoin="round"/>
</svg>
