<svg width="120" height="120" viewBox="0 0 120 120" fill="none" xmlns="http://www.w3.org/2000/svg">
<circle cx="60" cy="60" r="60" fill="#D2C1F4"/>
<path fill-rule="evenodd" clip-rule="evenodd" d="M37.2343 28.0866C37.12 28.1596 36.8317 28.2202 36.5933 28.2212C35.7819 28.225 34.8956 28.6417 33.9774 29.4507C33.9012 29.5178 33.6517 29.8967 33.423 30.2925C33.1944 30.6882 32.9037 31.1222 32.7772 31.2571C32.6504 31.392 32.4758 31.8438 32.3885 32.2609C32.3011 32.6783 32.1397 33.094 32.0295 33.1848C31.9193 33.2757 31.8282 33.4818 31.8268 33.6429C31.8234 34.1064 31.349 36.2472 31.1827 36.5511C31.0999 36.7025 31.0036 37.3322 30.9693 37.9503C30.9315 38.6227 30.822 39.2036 30.6966 39.3956C30.5542 39.6135 30.4579 40.2601 30.3969 41.4022C30.3477 42.3289 30.1856 43.5678 30.0369 44.1552C29.7168 45.4206 29.4732 49.6616 29.4732 53.9666C29.4732 56.9911 29.4167 57.2736 28.4417 59.1305C28.3239 59.3549 28.2273 59.6959 28.2266 59.8879C28.2262 60.0803 28.0987 60.4829 27.9428 60.7827C27.7872 61.0827 27.597 61.8181 27.5201 62.4173C27.2848 64.2463 26.787 64.652 25.5476 64.0243C25.2618 63.8798 24.7195 63.7194 24.3429 63.6678C23.9659 63.6162 23.5127 63.461 23.3357 63.3227C23.1586 63.1847 22.7747 63.0267 22.4827 62.9723C22.1902 62.918 21.8268 62.7497 21.6743 62.5983C21.4567 62.3822 21.1983 62.3202 20.4651 62.3075C18.1541 62.2683 18.1063 64.8021 20.4069 65.3774C20.7319 65.4586 21.0874 65.6138 21.1965 65.7222C21.3057 65.8306 21.6379 65.9624 21.9349 66.0151C22.2315 66.0677 22.6926 66.2247 22.9594 66.3644C23.2262 66.5038 23.8138 66.682 24.2653 66.7601C24.7168 66.8382 25.2292 66.9955 25.4038 67.1091C25.5784 67.223 25.8525 67.3159 26.0126 67.3159C26.7384 67.3159 26.84 67.5089 26.84 68.8868C26.84 70.6529 27.1033 70.5462 23.0582 70.4178C17.5374 70.243 17 70.3631 17 71.7737C17 72.8308 17.4553 73.1106 19.2868 73.1798C19.9728 73.2056 20.8771 73.2951 21.2963 73.3783C22.0631 73.5305 25.1793 73.4836 26.4595 73.3009C28.0034 73.0807 27.5308 74.7879 25.9045 75.3065C25.6186 75.3973 25.2871 75.5563 25.1679 75.6596C25.0487 75.7625 24.7368 75.919 24.4749 76.0071C24.213 76.0956 23.8391 76.2779 23.6441 76.4128C23.4486 76.5474 23.1212 76.6995 22.9165 76.7508C22.7113 76.8017 22.5436 76.8919 22.5436 76.9507C22.5436 77.0096 22.3098 77.1661 22.0239 77.2986C21.4793 77.5512 21.4408 77.5798 20.506 78.4225C18.8155 79.9463 20.3886 82.0293 22.2585 80.7423C22.5378 80.5499 22.826 80.3927 22.8988 80.3927C22.9719 80.3927 23.1091 80.2688 23.2044 80.1174C23.2997 79.9659 23.4622 79.8421 23.5654 79.8421C23.669 79.8421 23.915 79.7161 24.1121 79.5619C24.3096 79.4078 24.6766 79.212 24.9278 79.127C25.1793 79.0416 25.5313 78.8599 25.7108 78.7223C25.8899 78.585 26.2444 78.4339 26.4983 78.3867C26.7527 78.3393 27.0676 78.183 27.1989 78.0388C27.7318 77.4542 28.6261 77.9883 28.95 79.085C29.0394 79.3878 29.1891 79.6824 29.2826 79.7398C29.3758 79.7973 29.5262 80.0761 29.6166 80.3593C29.7071 80.6425 29.8581 80.9364 29.9524 81.0121C30.0466 81.0878 30.2282 81.351 30.3564 81.5971C30.4842 81.8431 30.6457 82.0445 30.7146 82.0445C30.7839 82.0445 30.8782 82.1628 30.9242 82.307C30.9707 82.4516 31.1921 82.7768 31.4166 83.0297C31.6411 83.283 31.8258 83.5294 31.8272 83.5782C31.8306 83.7166 33.3059 85.1478 33.7286 85.4227C33.9379 85.5587 34.1728 85.7238 34.2511 85.7892C34.8093 86.2569 37.2104 87.7057 38.1005 88.1124C38.4626 88.2776 38.7588 88.4669 38.7588 88.5322C38.7588 88.598 38.8679 88.652 39.0013 88.6524C39.1347 88.6524 39.6181 88.8382 40.0754 89.0646C40.5328 89.291 41.039 89.4769 41.2001 89.4769C41.3612 89.4772 41.6508 89.6008 41.8438 89.7515C42.0528 89.9146 42.5763 90.0788 43.1417 90.1586C43.7124 90.2388 44.1528 90.3775 44.248 90.5068C44.3655 90.6665 44.8156 90.7522 45.9905 90.8393C46.9693 90.9119 47.7409 91.0423 48.0098 91.1803C48.3337 91.3469 49.149 91.4405 51.1897 91.5458C52.6993 91.6235 54.4646 91.7588 55.1125 91.8462C56.637 92.0513 63.2894 92.0513 64.8139 91.8462C65.4618 91.7588 67.2271 91.6235 68.7367 91.5458C70.7775 91.4405 71.5928 91.3469 71.9167 91.1803C72.1856 91.0423 72.9572 90.9119 73.936 90.8393C75.1109 90.7522 75.561 90.6665 75.6784 90.5068C75.7737 90.3775 76.2141 90.2388 76.7847 90.1586C77.3502 90.0788 77.8737 89.9146 78.0826 89.7515C78.2756 89.6008 78.5653 89.4772 78.7264 89.4769C78.8875 89.4769 79.3937 89.291 79.851 89.0646C80.3084 88.8382 80.7917 88.6524 80.9251 88.6524C81.0585 88.652 81.1677 88.598 81.1677 88.5322C81.1677 88.4669 81.4639 88.2776 81.826 88.1124C82.7161 87.7057 85.1172 86.2569 85.6753 85.7892C85.7536 85.7238 85.9885 85.5587 86.1978 85.4227C86.6205 85.1478 88.0958 83.7166 88.0993 83.5782C88.1007 83.5294 88.2854 83.283 88.5099 83.0297C88.7344 82.7768 88.9558 82.4516 89.0022 82.307C89.0483 82.1628 89.1425 82.0445 89.2118 82.0445C89.2808 82.0445 89.4422 81.8431 89.5701 81.5971C89.6983 81.351 89.8798 81.0878 89.9741 81.0121C90.0683 80.9364 90.2194 80.6425 90.3098 80.3593C90.4003 80.0761 90.5513 79.7973 90.6456 79.7398C90.7401 79.6824 90.8763 79.4253 90.948 79.1683C91.1324 78.5099 91.4626 78.3331 91.9442 78.6342C92.1534 78.7646 92.5893 78.9948 92.9133 79.1455C93.2372 79.2959 93.5023 79.4835 93.5023 79.5619C93.5023 79.6404 93.5872 79.7044 93.6907 79.7044C93.7943 79.7044 94.0979 79.8517 94.365 80.0317C94.6321 80.2116 95.0722 80.4315 95.3435 80.5203C95.6144 80.6095 95.9058 80.7657 95.9914 80.8675C96.3486 81.2953 97.8755 81.5548 98.5435 81.3011C100.166 80.6858 99.2891 78.7911 97.0398 78.0536C96.7605 77.9621 96.4983 77.8007 96.4574 77.6947C96.4165 77.5887 96.2758 77.502 96.1445 77.502C95.9273 77.502 95.4443 77.2274 94.049 76.3113C93.7784 76.1334 93.4936 75.9879 93.4163 75.9879C93.2646 75.9879 92.3935 75.0611 92.3935 74.8997C92.3935 74.4961 92.7996 74.3471 94.1259 74.2638C94.8882 74.216 96.0108 74.0611 96.6206 73.9197C97.2304 73.7786 98.2282 73.6216 98.838 73.5711C101.291 73.3677 102.661 72.0899 101.681 70.9213C101.153 70.2926 98.6073 70.2509 97.0405 70.8456C96.4096 71.0851 93.5917 71.2995 93.2885 71.1312C93.1378 71.0472 93.0865 70.7396 93.0865 69.9182C93.0865 68.5922 93.3439 68.2237 94.3764 68.0699C94.7239 68.0179 95.0382 67.8978 95.0749 67.8028C95.1116 67.7075 95.4432 67.5557 95.8119 67.4652C96.1805 67.3744 96.7314 67.1858 97.0363 67.0457C97.3412 66.906 97.9604 66.7488 98.4125 66.6965C98.8643 66.6445 99.3633 66.5216 99.5213 66.4236C99.6789 66.3258 100.12 66.1741 100.501 66.0867C102.174 65.7026 102.275 63.6293 100.633 63.3846C100.275 63.3313 99.6623 63.3543 99.2715 63.4355C98.8806 63.5167 98.2885 63.6245 97.9559 63.675C97.6229 63.7253 97.0928 63.8788 96.7779 64.0157C96.4626 64.1527 95.9127 64.3072 95.5558 64.3592C95.199 64.4111 94.8767 64.5316 94.84 64.6265C94.7413 64.8826 93.5518 65.1493 93.2424 64.9851C92.9275 64.8175 92.5723 63.7132 92.3987 62.3605C92.3256 61.7927 92.1389 61.0827 91.9833 60.7827C91.8277 60.4829 91.7002 60.0803 91.6999 59.8879C91.6992 59.6959 91.6025 59.3549 91.4847 59.1305C90.5097 57.2736 90.4533 56.9911 90.4533 53.9666C90.4533 49.6616 90.2097 45.4206 89.8895 44.1552C89.7409 43.5678 89.5788 42.3289 89.5296 41.4022C89.4686 40.2601 89.3723 39.6135 89.2299 39.3956C89.1044 39.2036 88.9949 38.6227 88.9572 37.9503C88.9229 37.3322 88.8266 36.7025 88.7437 36.5511C88.5774 36.2472 88.1031 34.1064 88.0996 33.6429C88.0983 33.4818 88.0071 33.2757 87.897 33.1848C87.7868 33.094 87.6253 32.6783 87.538 32.2609C87.4507 31.8438 87.2761 31.392 87.1492 31.2571C87.0228 31.1222 86.7321 30.6882 86.5034 30.2925C86.2747 29.8967 86.0253 29.5178 85.9491 29.4507C85.0389 28.6486 84.1408 28.2232 83.3584 28.2232C83.1346 28.2232 82.846 28.1685 82.7178 28.1018C82.2372 27.8516 79.621 28.4318 78.9661 28.9335C78.7842 29.0729 78.5725 29.1868 78.4956 29.1868C78.3401 29.1868 78.2919 29.2302 76.5249 30.9546C75.1739 32.2729 74.3486 33.2007 73.9547 33.8438C73.6553 34.3328 73.3937 34.6529 72.601 35.4998C72.2722 35.8508 71.9122 36.3085 71.8006 36.5167C71.6891 36.7249 71.5494 36.8952 71.4905 36.8952C71.4316 36.8952 71.3031 37.1161 71.2047 37.3859C71.1063 37.6557 70.941 37.909 70.8371 37.9486C70.7331 37.9885 70.5779 38.2321 70.492 38.4902C70.4064 38.7487 70.2803 38.96 70.2117 38.96C70.1434 38.96 69.983 39.1613 69.8548 39.4073C69.727 39.6534 69.3514 40.1857 69.0198 40.5901C68.6886 40.9944 68.4173 41.4105 68.4173 41.5144C68.4173 41.6844 68.1193 42.0519 67.3044 42.8878C67.1544 43.042 67.0314 43.2605 67.0314 43.3734C67.0314 44.1604 65.9687 44.4329 64.782 43.9498C64.263 43.7385 63.6712 43.7089 59.9632 43.7089C56.2552 43.7089 55.6634 43.7385 55.1444 43.9498C53.9577 44.4329 52.8951 44.1604 52.8951 43.3734C52.8951 43.2605 52.7721 43.042 52.6221 42.8878C51.8071 42.0519 51.5092 41.6844 51.5092 41.5144C51.5092 41.4105 51.2379 40.9944 50.9066 40.5901C50.5751 40.1857 50.1995 39.6534 50.0716 39.4073C49.9434 39.1613 49.783 38.96 49.7148 38.96C49.6462 38.96 49.52 38.7487 49.4345 38.4902C49.3485 38.2321 49.1933 37.9885 49.0894 37.9486C48.9854 37.909 48.8202 37.6557 48.7218 37.3859C48.6234 37.1161 48.4948 36.8952 48.4359 36.8952C48.377 36.8952 48.2374 36.7249 48.1258 36.5167C48.0143 36.3085 47.6543 35.8508 47.3255 35.4998C46.5327 34.6529 46.2711 34.3328 45.9718 33.8438C45.5778 33.2007 44.7525 32.2729 43.4016 30.9546C41.6346 29.2302 41.5864 29.1868 41.4308 29.1868C41.3539 29.1868 41.1422 29.0722 40.9603 28.9318C40.5567 28.6204 39.4833 28.2756 38.5509 28.1575C38.1698 28.1093 37.7644 28.044 37.6501 28.012C37.5357 27.9803 37.3486 28.0137 37.2343 28.0866ZM74.6792 65.5423C75.1064 65.7649 75.9272 66.8892 76.0467 67.415C76.6285 69.9777 73.6952 70.7107 72.1145 68.3975C70.8669 66.5712 72.7119 64.5168 74.6792 65.5423ZM46.6093 65.8953C47.4145 66.5051 47.6061 67.4425 47.0964 68.2794C46.8158 68.7406 45.7064 69.7936 45.5012 69.7936C45.4115 69.7936 45.1049 69.9175 44.8208 70.0689C43.8714 70.5741 42.7118 70.0885 42.3635 69.0403C41.6699 66.9535 44.8738 64.5804 46.6093 65.8953ZM52.462 76.4008C52.5923 76.4008 53.2859 76.9645 54.0031 77.6538C55.8263 79.405 56.0366 79.4615 56.7517 78.3895C57.2624 77.6235 57.5916 77.3705 58.2797 77.2143C58.7956 77.0973 59.8246 77.2776 59.8246 77.4851C59.8246 77.5457 59.9934 77.672 60.1999 77.7653C60.406 77.8585 60.659 78.0543 60.7619 78.2002C60.8648 78.3461 61.0581 78.4656 61.1915 78.4656C61.3249 78.4656 61.6454 78.6204 61.9035 78.8097C62.7503 79.4301 63.7024 79.054 64.0011 77.9807C64.3677 76.6613 66.2729 76.0966 67.276 77.0099C67.9274 77.6028 68.0424 79.2095 67.487 79.9556C67.3245 80.1741 67.1218 80.6095 67.0369 80.9233C66.9517 81.2371 66.8235 81.4939 66.7518 81.4939C66.68 81.4939 66.4929 81.7437 66.336 82.0493C66.1472 82.4168 65.8769 82.6842 65.5363 82.8408C65.2533 82.9705 64.9393 83.1543 64.8385 83.2489C64.4979 83.5693 63.023 83.5008 62.3317 83.1329C62.0605 82.9887 61.6035 82.8704 61.3166 82.8704C60.9777 82.8704 60.6964 82.7726 60.5145 82.592C60.0499 82.1305 59.1386 82.0844 58.6882 82.4997C58.0157 83.1192 54.2304 83.1398 53.7786 82.5259C53.6892 82.4044 53.4072 82.2468 53.1518 82.1756C52.6162 82.0262 51.2299 80.7657 50.539 79.8008C49.3475 78.1355 50.336 75.8622 52.0403 76.3482C52.1418 76.3771 52.3314 76.4008 52.462 76.4008Z" fill="white"/>
</svg>
