<svg width="35" height="32" viewBox="0 0 35 32" fill="none" xmlns="http://www.w3.org/2000/svg">
<path d="M33.5 14.25V26.5C33.5 28.433 31.933 30 30 30H5.5C3.567 30 2 28.433 2 26.5V10.75C2 8.81698 3.567 7.24998 5.5 7.24998H8.125C9.22664 7.24998 10.264 6.7313 10.925 5.84998L12.7625 3.39998C13.4235 2.51867 14.4609 1.99998 15.5625 1.99998H19.9375" stroke="#F7F5FF" stroke-width="3" stroke-linecap="round" stroke-linejoin="round"/>
<path d="M29.125 1.99998V6.37498M29.125 6.37498V10.75M29.125 6.37498H24.75M29.125 6.37498H33.5" stroke="#F7F5FF" stroke-width="3" stroke-linecap="round" stroke-linejoin="round"/>
<path d="M17.75 24.75C21.616 24.75 24.75 21.616 24.75 17.75C24.75 13.884 21.616 10.75 17.75 10.75C13.884 10.75 10.75 13.884 10.75 17.75C10.75 21.616 13.884 24.75 17.75 24.75Z" stroke="#F7F5FF" stroke-width="3" stroke-linecap="round" stroke-linejoin="round"/>
</svg>
