<svg width="28" height="26" viewBox="0 0 28 26" fill="none" xmlns="http://www.w3.org/2000/svg">
<path d="M26.75 11.625V21.25C26.75 22.7688 25.5188 24 24 24H4.75C3.23122 24 2 22.7688 2 21.25V8.875C2 7.35622 3.23122 6.125 4.75 6.125H6.8125C7.67808 6.125 8.49315 5.71746 9.0125 5.025L10.4562 3.1C10.9756 2.40754 11.7907 2 12.6562 2H16.0937" stroke="#A28AEB" stroke-width="2.5" stroke-linecap="round" stroke-linejoin="round"/>
<path d="M23.3125 2V5.4375M23.3125 5.4375V8.875M23.3125 5.4375H19.875M23.3125 5.4375H26.75" stroke="#A28AEB" stroke-width="2.5" stroke-linecap="round" stroke-linejoin="round"/>
<path d="M14.375 19.875C17.4126 19.875 19.875 17.4126 19.875 14.375C19.875 11.3374 17.4126 8.875 14.375 8.875C11.3374 8.875 8.875 11.3374 8.875 14.375C8.875 17.4126 11.3374 19.875 14.375 19.875Z" stroke="#A28AEB" stroke-width="2.5" stroke-linecap="round" stroke-linejoin="round"/>
</svg>
