<svg width="25" height="25" viewBox="0 0 25 25" fill="none" xmlns="http://www.w3.org/2000/svg">
<path d="M1.04163 22.9167C1.04163 22.3414 1.508 21.875 2.08329 21.875H22.9166C23.4919 21.875 23.9583 22.3414 23.9583 22.9167C23.9583 23.492 23.4919 23.9583 22.9166 23.9583H2.08329C1.508 23.9583 1.04163 23.492 1.04163 22.9167Z" fill="#F6F6FE"/>
<path fill-rule="evenodd" clip-rule="evenodd" d="M19.0684 1.95696C17.8481 0.736571 15.8694 0.736571 14.649 1.95696L3.53029 13.0756C3.11004 13.4959 2.81834 14.0273 2.68942 14.6075L2.13445 17.1048C1.80365 18.5933 3.13157 19.9213 4.6201 19.5905L7.11746 19.0355C7.69763 18.9066 8.22901 18.6149 8.64926 18.1947L19.768 7.07593C20.9884 5.85554 20.9884 3.87691 19.768 2.65651L19.0684 1.95696ZM16.1221 3.43009C16.5289 3.0233 17.1885 3.0233 17.5952 3.43009L18.2948 4.12966C18.7016 4.53645 18.7016 5.196 18.2948 5.60279L16.2932 7.60444L14.1205 5.43175L16.1221 3.43009ZM12.6473 6.90489L5.00343 14.5489C4.86334 14.6889 4.76611 14.866 4.72313 15.0594L4.16816 17.5568L6.66552 17.0018C6.85891 16.9589 7.03604 16.8616 7.17612 16.7215L14.82 9.07758L12.6473 6.90489Z" fill="#F6F6FE"/>
</svg>
