<svg width="28" height="6" viewBox="0 0 28 6" fill="none" xmlns="http://www.w3.org/2000/svg">
<path d="M13.75 1.48491e-06C14.2939 1.48491e-06 14.8256 0.161286 15.2778 0.46346C15.7301 0.765634 16.0825 1.19513 16.2907 1.69762C16.4988 2.20012 16.5533 2.75305 16.4472 3.2865C16.341 3.81995 16.0791 4.30995 15.6945 4.69454C15.3099 5.07914 14.8199 5.34105 14.2865 5.44716C13.753 5.55327 13.2001 5.49881 12.6976 5.29067C12.1951 5.08253 11.7656 4.73005 11.4635 4.27782C11.1613 3.82558 11 3.2939 11 2.75C11 2.02066 11.2897 1.32118 11.8055 0.805458C12.3212 0.289733 13.0207 1.48491e-06 13.75 1.48491e-06ZM2.75 5.5C3.2939 5.5 3.82558 5.33872 4.27782 5.03654C4.73005 4.73437 5.08253 4.30488 5.29067 3.80238C5.49881 3.29988 5.55327 2.74695 5.44716 2.2135C5.34105 1.68006 5.07914 1.19005 4.69454 0.805458C4.30995 0.420864 3.81995 0.158951 3.2865 0.0528417C2.75305 -0.0532676 2.20012 0.00119153 1.69762 0.209332C1.19512 0.417473 0.765632 0.769948 0.463458 1.22218C0.161285 1.67442 0 2.2061 0 2.75C0 3.47935 0.289731 4.17882 0.805456 4.69454C1.32118 5.21027 2.02065 5.5 2.75 5.5ZM24.75 1.48491e-06C24.2061 1.48491e-06 23.6744 0.161286 23.2222 0.46346C22.7699 0.765634 22.4175 1.19513 22.2093 1.69762C22.0012 2.20012 21.9467 2.75305 22.0528 3.2865C22.1589 3.81995 22.4209 4.30995 22.8055 4.69454C23.19 5.07914 23.6801 5.34105 24.2135 5.44716C24.7469 5.55327 25.2999 5.49881 25.8024 5.29067C26.3049 5.08253 26.7344 4.73005 27.0365 4.27782C27.3387 3.82558 27.5 3.2939 27.5 2.75C27.5 2.02066 27.2103 1.32118 26.6945 0.805458C26.1788 0.289733 25.4793 1.48491e-06 24.75 1.48491e-06Z" fill="#8791A1"/>
</svg>
