<svg width="35" height="32" viewBox="0 0 35 32" fill="none" xmlns="http://www.w3.org/2000/svg">
<path d="M33.5 14.25V26.5C33.5 28.433 31.933 30 30 30H5.5C3.567 30 2 28.433 2 26.5V10.75C2 8.817 3.567 7.25 5.5 7.25H8.125C9.22664 7.25 10.264 6.73132 10.925 5.85L12.7625 3.4C13.4235 2.51868 14.4609 2 15.5625 2H19.9375" stroke="white" stroke-width="3" stroke-linecap="round" stroke-linejoin="round"/>
<path d="M29.125 2V6.375M29.125 6.375V10.75M29.125 6.375H24.75M29.125 6.375H33.5" stroke="white" stroke-width="3" stroke-linecap="round" stroke-linejoin="round"/>
<path d="M17.75 24.75C21.616 24.75 24.75 21.616 24.75 17.75C24.75 13.884 21.616 10.75 17.75 10.75C13.884 10.75 10.75 13.884 10.75 17.75C10.75 21.616 13.884 24.75 17.75 24.75Z" stroke="white" stroke-width="3" stroke-linecap="round" stroke-linejoin="round"/>
</svg>
