<svg width="113" height="113" viewBox="0 0 113 113" fill="none" xmlns="http://www.w3.org/2000/svg">
<g clip-path="url(#clip0_109_4)">
<rect width="113" height="113" rx="56.5" fill="white"/>
<path d="M15.5 146.5C49.0496 146.5 79.4862 136.854 101.574 121.181C123.659 105.511 137.5 83.7248 137.5 59.5C137.5 35.2752 123.659 13.4891 101.574 -2.18097C79.4862 -17.8535 49.0496 -27.5 15.5 -27.5C-18.0496 -27.5 -48.4862 -17.8535 -70.5744 -2.18097C-92.6591 13.4891 -106.5 35.2752 -106.5 59.5C-106.5 83.7248 -92.6591 105.511 -70.5744 121.181C-48.4862 136.854 -18.0496 146.5 15.5 146.5Z" fill="#351D66" stroke="#F7F5FF" stroke-width="3"/>
<path d="M72.5 55.25V67.5C72.5 69.433 70.933 71 69 71H44.5C42.567 71 41 69.433 41 67.5V51.75C41 49.817 42.567 48.25 44.5 48.25H47.125C48.2266 48.25 49.264 47.7313 49.925 46.85L51.7625 44.4C52.4235 43.5187 53.4609 43 54.5625 43H58.9375" stroke="#F7F5FF" stroke-width="3" stroke-linecap="round" stroke-linejoin="round"/>
<path d="M68.1251 43V47.375M68.1251 47.375V51.75M68.1251 47.375H63.7501M68.1251 47.375H72.5001" stroke="#F7F5FF" stroke-width="3" stroke-linecap="round" stroke-linejoin="round"/>
<path d="M56.7499 65.75C60.6159 65.75 63.7499 62.616 63.7499 58.75C63.7499 54.884 60.6159 51.75 56.7499 51.75C52.8839 51.75 49.7499 54.884 49.7499 58.75C49.7499 62.616 52.8839 65.75 56.7499 65.75Z" stroke="#F7F5FF" stroke-width="3" stroke-linecap="round" stroke-linejoin="round"/>
</g>
<defs>
<clipPath id="clip0_109_4">
<rect width="113" height="113" rx="56.5" fill="white"/>
</clipPath>
</defs>
</svg>
