<svg width="39" height="40" viewBox="0 0 39 40" fill="none" xmlns="http://www.w3.org/2000/svg">
<path d="M38 20C38 30.5174 29.6936 39 19.5 39C9.30645 39 1 30.5174 1 20C1 9.48257 9.30645 1 19.5 1C29.6936 1 38 9.48257 38 20Z" fill="white" stroke="#855BD9" stroke-width="2"/>
<path fill-rule="evenodd" clip-rule="evenodd" d="M18.0378 30.1775C17.5051 30.1775 17.0507 29.7919 16.9639 29.2663C16.884 28.8411 16.5779 28.4936 16.1661 28.361C15.8305 28.2457 15.5024 28.1099 15.1837 27.9541C14.8045 27.7601 14.3495 27.7891 13.9979 28.0296C13.5724 28.3355 12.988 28.2882 12.6173 27.9177L11.1758 26.4762C10.7878 26.0881 10.7374 25.4765 11.0566 25.0302C11.3028 24.6705 11.3382 24.2068 11.1496 23.8139C11.0253 23.5409 10.9157 23.2615 10.8212 22.9768C10.6858 22.5282 10.3122 22.1922 9.85187 22.1049C9.29673 22.0162 8.88689 21.5394 8.88258 20.9772V19.1738C8.87963 18.5258 9.34767 17.9715 9.98703 17.8659C10.4721 17.7736 10.8771 17.4414 11.0624 16.9838C11.1176 16.8549 11.1758 16.727 11.2368 16.6001C11.4833 16.1255 11.4492 15.554 11.1481 15.112C10.7716 14.5887 10.8294 13.8696 11.2847 13.4132L12.3441 12.3538C12.8666 11.8311 13.6907 11.7635 14.2914 12.194L14.3249 12.2172C14.7735 12.5191 15.3443 12.5738 15.842 12.3625C16.3745 12.1709 16.767 11.7133 16.8752 11.1578L16.8899 11.1084C17.0094 10.373 17.6445 9.83279 18.3896 9.83249H19.6684C20.4335 9.83214 21.0864 10.3855 21.2116 11.1404L21.2349 11.2421C21.3376 11.7742 21.7098 12.2146 22.2173 12.4047C22.7064 12.6146 23.2689 12.5598 23.7083 12.2594L23.7809 12.207C24.3972 11.7629 25.2447 11.8312 25.782 12.3683L26.7571 13.3449C27.2458 13.8363 27.3072 14.6091 26.9024 15.1716C26.5853 15.6417 26.5449 16.2459 26.7963 16.7541L26.8589 16.8995C27.0625 17.3957 27.5032 17.7554 28.0301 17.8557C28.7189 17.968 29.2253 18.5618 29.2276 19.2595V20.8769C29.2274 21.4922 28.7824 22.0171 28.1754 22.118C27.6763 22.2137 27.2697 22.5751 27.116 23.0596C27.0482 23.2534 26.9726 23.4472 26.8893 23.6409C26.6954 24.0667 26.7385 24.5629 27.0027 24.9488C27.3514 25.4339 27.2973 26.1002 26.8749 26.5227L25.5219 27.877C25.135 28.2639 24.5248 28.3137 24.0804 27.9948C23.7092 27.7412 23.2286 27.7133 22.8306 27.9221C22.547 28.0626 22.2559 28.1873 21.9587 28.2956C21.543 28.439 21.2365 28.7948 21.1565 29.2271C21.0717 29.771 20.6053 30.1734 20.0549 30.1775H18.0378Z" stroke="#855BD9" stroke-width="2" stroke-linecap="round" stroke-linejoin="round"/>
<path fill-rule="evenodd" clip-rule="evenodd" d="M22.9675 20.3963C22.9675 22.341 21.2158 23.9175 19.0549 23.9175C16.8941 23.9175 15.1425 22.341 15.1425 20.3963C15.1425 18.4515 16.8941 16.875 19.0549 16.875C21.2158 16.875 22.9675 18.4515 22.9675 20.3963Z" stroke="#855BD9" stroke-width="2" stroke-linecap="round" stroke-linejoin="round"/>
</svg>
