<svg width="18" height="18" viewBox="0 0 18 18" fill="none" xmlns="http://www.w3.org/2000/svg">
<path fill-rule="evenodd" clip-rule="evenodd" d="M16.4372 0.88577C15.2562 -0.295257 13.3414 -0.295257 12.1603 0.88577L1.40025 11.6458C0.993553 12.0526 0.711263 12.5668 0.586495 13.1283L0.0494251 15.545C-0.270698 16.9856 1.01439 18.2707 2.45491 17.9506L4.87172 17.4135C5.43319 17.2887 5.94742 17.0064 6.35412 16.5998L17.1142 5.83964C18.2953 4.65861 18.2953 2.74379 17.1142 1.56276L16.4372 0.88577ZM13.586 2.31139C13.9796 1.91772 14.6179 1.91772 15.0116 2.31139L15.6886 2.98839C16.0822 3.38206 16.0822 4.02034 15.6886 4.41401L13.7515 6.3511L11.6489 4.24849L13.586 2.31139ZM10.2232 5.67411L2.82587 13.0715C2.69031 13.207 2.59621 13.3785 2.55462 13.5656L2.01755 15.9824L4.43436 15.4453C4.62152 15.4038 4.79293 15.3097 4.9285 15.1741L12.3259 7.77673L10.2232 5.67411Z" fill="#5F6E78"/>
</svg>
