<svg width="20" height="20" viewBox="0 0 20 20" fill="none" xmlns="http://www.w3.org/2000/svg">
<path fill-rule="evenodd" clip-rule="evenodd" d="M18.75 13.7496C18.75 14.6639 17.7956 15.6245 16.875 15.6245H11.875L10 18.1244L8.125 15.6245H3.125C2.20438 15.6245 1.25 14.6639 1.25 13.7496V3.1249C1.25 2.21056 2.20438 1.24996 3.125 1.24996H16.875C17.7956 1.24996 18.75 2.21056 18.75 3.1249V13.7496ZM16.6669 0H3.33313C1.4925 0 0 1.48183 0 3.31052V13.8664C0 15.6939 1.28438 16.8745 3.125 16.8745H7.27438L10 20L12.7256 16.8745H16.875C18.7156 16.8745 20 15.6939 20 13.8664V3.31052C20 1.48183 18.5075 0 16.6669 0Z" fill="#5F6E78"/>
</svg>
