<svg width="25" height="22" viewBox="0 0 25 22" fill="none" xmlns="http://www.w3.org/2000/svg">
<path d="M11.8955 11.0033H3.57243M3.33652 12.038L1.96144 15.9334C1.20832 18.0668 0.83176 19.1335 1.102 19.7904C1.33666 20.3609 1.84069 20.7933 2.46264 20.958C3.17882 21.1475 4.26053 20.6859 6.42396 19.7627L20.2935 13.8438C22.4052 12.9426 23.4611 12.4921 23.7873 11.8661C24.0709 11.3223 24.0709 10.6842 23.7873 10.1404C23.4611 9.51453 22.4052 9.06391 20.2935 8.16274L6.40004 2.23368C4.24312 1.31323 3.16468 0.852991 2.44921 1.04179C1.82786 1.20575 1.32388 1.63709 1.08839 2.20651C0.817226 2.86217 1.18976 3.92659 1.93485 6.05542L3.33919 10.0679C3.46715 10.4335 3.53114 10.6164 3.55639 10.8033C3.57881 10.9693 3.57858 11.1372 3.55572 11.3031C3.52995 11.49 3.46548 11.6726 3.33652 12.038Z" stroke="#5F6E78" stroke-width="2" stroke-linecap="round" stroke-linejoin="round"/>
</svg>
