<svg width="28" height="6" viewBox="0 0 28 6" fill="none" xmlns="http://www.w3.org/2000/svg">
<rect width="27.5" height="5.5" transform="translate(0.5)" fill="white"/>
<path d="M14.25 1.48491e-06C13.7061 1.48491e-06 13.1744 0.161286 12.7222 0.46346C12.2699 0.765634 11.9175 1.19513 11.7093 1.69762C11.5012 2.20012 11.4467 2.75305 11.5528 3.2865C11.659 3.81995 11.9209 4.30995 12.3055 4.69454C12.6901 5.07914 13.1801 5.34105 13.7135 5.44716C14.247 5.55327 14.7999 5.49881 15.3024 5.29067C15.8049 5.08253 16.2344 4.73005 16.5365 4.27782C16.8387 3.82558 17 3.2939 17 2.75C17 2.02066 16.7103 1.32118 16.1945 0.805458C15.6788 0.289733 14.9793 1.48491e-06 14.25 1.48491e-06ZM25.25 5.5C24.7061 5.5 24.1744 5.33872 23.7222 5.03654C23.2699 4.73437 22.9175 4.30488 22.7093 3.80238C22.5012 3.29988 22.4467 2.74695 22.5528 2.2135C22.6589 1.68006 22.9209 1.19005 23.3055 0.805458C23.6901 0.420864 24.1801 0.158951 24.7135 0.0528417C25.2469 -0.0532676 25.7999 0.00119153 26.3024 0.209332C26.8049 0.417473 27.2344 0.769948 27.5365 1.22218C27.8387 1.67442 28 2.2061 28 2.75C28 3.47935 27.7103 4.17882 27.1945 4.69454C26.6788 5.21027 25.9793 5.5 25.25 5.5ZM3.25 1.48491e-06C3.7939 1.48491e-06 4.32559 0.161286 4.77782 0.46346C5.23005 0.765634 5.58253 1.19513 5.79067 1.69762C5.99881 2.20012 6.05327 2.75305 5.94716 3.2865C5.84105 3.81995 5.57914 4.30995 5.19455 4.69454C4.80995 5.07914 4.31995 5.34105 3.7865 5.44716C3.25305 5.55327 2.70012 5.49881 2.19762 5.29067C1.69513 5.08253 1.26563 4.73005 0.963461 4.27782C0.661287 3.82558 0.500002 3.2939 0.500002 2.75C0.500002 2.02066 0.789736 1.32118 1.30546 0.805458C1.82118 0.289733 2.52066 1.48491e-06 3.25 1.48491e-06Z" fill="#B3BDC7"/>
</svg>
