<svg width="18" height="20" viewBox="0 0 18 20" fill="none" xmlns="http://www.w3.org/2000/svg">
<path d="M13.9997 16V13.5M13.9997 16V18.5M13.9997 16H11.4997M13.9997 16H16.4997M10.9997 12.1241C10.081 11.7227 9.0664 11.5 7.9997 11.5C4.5419 11.5 1.63061 13.84 0.763071 17.0229C0.472601 18.0886 1.39517 19 2.49974 19H8.9997M11.4997 5C11.4997 6.933 9.9327 8.5 7.9997 8.5C6.0667 8.5 4.49974 6.933 4.49974 5C4.49974 3.067 6.0667 1.5 7.9997 1.5C9.9327 1.5 11.4997 3.067 11.4997 5Z" stroke="#855BD9" stroke-width="1.25" stroke-linecap="round"/>
</svg>
