<svg width="30" height="32" viewBox="0 0 30 32" fill="none" xmlns="http://www.w3.org/2000/svg">
<path d="M13.444 13.2222C17.1259 13.2222 20.1107 10.4862 20.1107 7.11111C20.1107 3.73604 17.1259 1 13.444 1C9.76211 1 6.77734 3.73604 6.77734 7.11111C6.77734 10.4862 9.76211 13.2222 13.444 13.2222Z" stroke="black" stroke-width="2"/>
<path d="M21.2217 17.3653C19.669 16.2128 16.4078 15.4445 14.2375 15.4445C12.5278 15.4445 10.8348 15.7894 9.25525 16.4595C7.67572 17.1296 6.24061 18.1119 5.0319 19.3501C3.82319 20.5882 2.86457 22.0581 2.2108 23.6758C1.55703 25.2934 1.22092 27.0271 1.22168 28.7778H18.48" stroke="black" stroke-width="2"/>
<path d="M22.8884 30.9999C26.2635 30.9999 28.9996 28.0152 28.9996 24.3333C28.9996 20.6514 26.2635 17.6666 22.8884 17.6666C19.5134 17.6666 16.7773 20.6514 16.7773 24.3333C16.7773 28.0152 19.5134 30.9999 22.8884 30.9999Z" stroke="black" stroke-width="2"/>
<path d="M22.333 19.8888V28.7777" stroke="black" stroke-width="2"/>
<path d="M20.1108 23.222H26.7775" stroke="black" stroke-width="2"/>
</svg>
