<svg width="39" height="39" viewBox="0 0 39 39" fill="none" xmlns="http://www.w3.org/2000/svg">
<circle cx="19.5" cy="19.5" r="19.5" fill="#855BD9"/>
<path d="M19.5 18.72C22.0847 18.72 24.18 16.7993 24.18 14.43C24.18 12.0607 22.0847 10.14 19.5 10.14C16.9153 10.14 14.82 12.0607 14.82 14.43C14.82 16.7993 16.9153 18.72 19.5 18.72Z" stroke="#F7F5FF" stroke-width="1.5"/>
<path d="M24.96 21.6284C23.87 20.8194 21.5807 20.28 20.0572 20.28C18.8569 20.28 17.6684 20.5221 16.5596 20.9926C15.4508 21.463 14.4433 22.1525 13.5948 23.0217C12.7463 23.8909 12.0733 24.9228 11.6144 26.0584C11.1554 27.194 10.9195 28.411 10.92 29.64H23.0353" stroke="#F7F5FF" stroke-width="1.5"/>
<path d="M26.13 31.2C28.4993 31.2 30.42 29.1047 30.42 26.52C30.42 23.9353 28.4993 21.84 26.13 21.84C23.7607 21.84 21.84 23.9353 21.84 26.52C21.84 29.1047 23.7607 31.2 26.13 31.2Z" stroke="#F7F5FF" stroke-width="1.5"/>
<path d="M25.74 23.4V29.64" stroke="#F7F5FF" stroke-width="1.5"/>
<path d="M24.18 25.74H28.86" stroke="#F7F5FF" stroke-width="1.5"/>
</svg>
