<svg width="18" height="22" viewBox="0 0 18 22" fill="none" xmlns="http://www.w3.org/2000/svg">
<path d="M9 11L14.2242 8.06139C15.9389 7.09689 17 5.28252 17 3.31518C17 2.31269 16.1873 1.5 15.1848 1.5H2.81518C1.81269 1.5 1 2.31269 1 3.31518C1 5.28252 2.06113 7.09688 3.77581 8.06139L5 8.75M9 11L3.77581 13.9386C2.06113 14.9031 1 16.7175 1 18.6848C1 19.6873 1.81269 20.5 2.81518 20.5H15.1848C16.1873 20.5 17 19.6873 17 18.6848C17 16.7175 15.9389 14.9031 14.2242 13.9386L9 11Z" stroke="black" stroke-width="1.25" stroke-linecap="round"/>
</svg>
